<svg width="512" height="512" viewBox="0 0 512 512" xmlns="http://www.w3.org/2000/svg">
  <!-- Background circle with gradient -->
  <defs>
    <linearGradient id="bgGradient" x1="0%" y1="0%" x2="100%" y2="100%">
      <stop offset="0%" style="stop-color:#3B82F6;stop-opacity:1" />
      <stop offset="100%" style="stop-color:#1E40AF;stop-opacity:1" />
    </linearGradient>
    <linearGradient id="checkGradient" x1="0%" y1="0%" x2="100%" y2="100%">
      <stop offset="0%" style="stop-color:#10B981;stop-opacity:1" />
      <stop offset="100%" style="stop-color:#059669;stop-opacity:1" />
    </linearGradient>
  </defs>
  
  <!-- Main background -->
  <circle cx="256" cy="256" r="240" fill="url(#bgGradient)" stroke="#1E40AF" stroke-width="4"/>
  
  <!-- Document/List background -->
  <rect x="140" y="120" width="232" height="290" rx="16" fill="#FFFFFF" stroke="#E5E7EB" stroke-width="2"/>
  
  <!-- Header area -->
  <rect x="140" y="120" width="232" height="60" rx="16" fill="#F3F4F6"/>
  <rect x="140" y="164" width="232" height="2" fill="#E5E7EB"/>
  
  <!-- Title lines in header -->
  <rect x="160" y="135" width="120" height="8" rx="4" fill="#6B7280"/>
  <rect x="160" y="150" width="80" height="6" rx="3" fill="#9CA3AF"/>
  
  <!-- Task items -->
  <!-- Task 1 - Completed -->
  <circle cx="165" cy="210" r="12" fill="url(#checkGradient)" stroke="#059669" stroke-width="2"/>
  <path d="M160 210 L164 214 L170 206" stroke="#FFFFFF" stroke-width="2.5" fill="none" stroke-linecap="round" stroke-linejoin="round"/>
  <rect x="185" y="205" width="140" height="6" rx="3" fill="#9CA3AF"/>
  <line x1="185" y1="208" x2="325" y2="208" stroke="#9CA3AF" stroke-width="1.5"/>
  
  <!-- Task 2 - In Progress -->
  <circle cx="165" cy="250" r="12" fill="#FEF3C7" stroke="#F59E0B" stroke-width="2"/>
  <circle cx="165" cy="250" r="4" fill="#F59E0B"/>
  <rect x="185" y="245" width="120" height="6" rx="3" fill="#374151"/>
  <rect x="185" y="255" width="80" height="4" rx="2" fill="#9CA3AF"/>
  
  <!-- Task 3 - Pending -->
  <circle cx="165" cy="290" r="12" fill="#FFFFFF" stroke="#9CA3AF" stroke-width="2"/>
  <rect x="185" y="285" width="100" height="6" rx="3" fill="#374151"/>
  <rect x="185" y="295" width="60" height="4" rx="2" fill="#9CA3AF"/>
  
  <!-- Task 4 - Pending -->
  <circle cx="165" cy="330" r="12" fill="#FFFFFF" stroke="#9CA3AF" stroke-width="2"/>
  <rect x="185" y="325" width="90" height="6" rx="3" fill="#374151"/>
  <rect x="185" y="335" width="110" height="4" rx="2" fill="#9CA3AF"/>
  
  <!-- AI/Technology element - Neural network nodes -->
  <g opacity="0.3">
    <circle cx="320" cy="180" r="3" fill="#3B82F6"/>
    <circle cx="340" cy="170" r="3" fill="#3B82F6"/>
    <circle cx="350" cy="190" r="3" fill="#3B82F6"/>
    <line x1="320" y1="180" x2="340" y2="170" stroke="#3B82F6" stroke-width="1"/>
    <line x1="320" y1="180" x2="350" y2="190" stroke="#3B82F6" stroke-width="1"/>
    <line x1="340" y1="170" x2="350" y2="190" stroke="#3B82F6" stroke-width="1"/>
  </g>
  
  <!-- Markdown "M" symbol -->
  <g transform="translate(300,350)">
    <rect x="0" y="0" width="40" height="30" rx="4" fill="#374151"/>
    <path d="M6 8 L6 22 L10 22 L10 14 L14 18 L18 14 L18 22 L22 22 L22 8 L18 8 L14 12 L10 8 Z" fill="#FFFFFF"/>
    <rect x="24" y="8" width="2" height="14" fill="#FFFFFF"/>
    <rect x="28" y="8" width="6" height="2" fill="#FFFFFF"/>
    <rect x="28" y="12" width="4" height="2" fill="#FFFFFF"/>
    <rect x="28" y="16" width="6" height="2" fill="#FFFFFF"/>
    <rect x="28" y="20" width="3" height="2" fill="#FFFFFF"/>
  </g>
</svg>